<svg xmlns="http://www.w3.org/2000/svg" width="15.939" height="17" viewBox="0 0 15.939 17" fill="#000000">
  <path d="M 7.97 1.977 C 8.555 1.977 9.03 1.534 9.03 0.988 C 9.03 0.443 8.555 0 7.97 0 C 7.384 0 6.909 0.443 6.909 0.988 C 6.909 1.534 7.384 1.977 7.97 1.977 Z M 7.97 4.123 C 8.555 4.123 9.03 3.68 9.03 3.135 C 9.03 2.589 8.555 2.146 7.97 2.146 C 7.384 2.146 6.909 2.589 6.909 3.135 C 6.909 3.68 7.384 4.123 7.97 4.123 Z M 7.97 6.269 C 8.555 6.269 9.03 5.827 9.03 5.281 C 9.03 4.735 8.555 4.292 7.97 4.292 C 7.384 4.292 6.909 4.735 6.909 5.281 C 6.909 5.827 7.384 6.269 7.97 6.269 Z M 7.97 8.415 C 8.555 8.415 9.03 7.973 9.03 7.427 C 9.03 6.881 8.555 6.439 7.97 6.439 C 7.384 6.439 6.909 6.881 6.909 7.427 C 6.909 7.973 7.384 8.415 7.97 8.415 Z M 7.97 10.561 C 8.555 10.561 9.03 10.119 9.03 9.573 C 9.03 9.027 8.555 8.585 7.97 8.585 C 7.384 8.585 6.909 9.027 6.909 9.573 C 6.909 10.119 7.384 10.561 7.97 10.561 Z M 10.273 4.123 C 10.858 4.123 11.333 3.68 11.333 3.135 C 11.333 2.589 10.858 2.146 10.273 2.146 C 9.687 2.146 9.212 2.589 9.212 3.135 C 9.212 3.68 9.687 4.123 10.273 4.123 Z M 10.273 8.415 C 10.858 8.415 11.333 7.973 11.333 7.427 C 11.333 6.881 10.858 6.439 10.273 6.439 C 9.687 6.439 9.212 6.881 9.212 7.427 C 9.212 7.973 9.687 8.415 10.273 8.415 Z M 12.576 6.439 L 12.596 6.439 C 13.172 6.449 13.636 6.887 13.636 7.427 C 13.636 7.973 13.162 8.415 12.576 8.415 C 11.99 8.415 11.515 7.973 11.515 7.427 C 11.515 6.881 11.99 6.439 12.576 6.439 Z M 14.879 6.439 C 15.465 6.439 15.939 6.881 15.939 7.427 C 15.939 7.436 15.939 7.446 15.939 7.455 C 15.939 7.465 15.939 7.474 15.939 7.483 C 15.939 8.029 15.465 8.472 14.879 8.472 C 14.293 8.472 13.818 8.029 13.818 7.483 C 13.818 7.474 13.818 7.465 13.819 7.455 C 13.818 7.446 13.818 7.436 13.818 7.427 C 13.818 6.881 14.293 6.439 14.879 6.439 Z M 14.879 6.269 C 15.465 6.269 15.939 5.827 15.939 5.281 C 15.939 4.735 15.465 4.292 14.879 4.292 C 14.293 4.292 13.818 4.735 13.818 5.281 C 13.818 5.827 14.293 6.269 14.879 6.269 Z M 14.879 10.561 C 15.465 10.561 15.939 10.119 15.939 9.573 C 15.939 9.027 15.465 8.585 14.879 8.585 C 14.293 8.585 13.818 9.027 13.818 9.573 C 13.818 10.119 14.293 10.561 14.879 10.561 Z M 10.273 16.944 C 10.858 16.944 11.333 16.501 11.333 15.955 C 11.333 15.409 10.858 14.967 10.273 14.967 C 9.687 14.967 9.212 15.409 9.212 15.955 C 9.212 16.501 9.687 16.944 10.273 16.944 Z M 5.667 17 C 6.252 17 6.727 16.557 6.727 16.012 C 6.727 15.466 6.252 15.023 5.667 15.023 C 5.081 15.023 4.606 15.466 4.606 16.012 C 4.606 16.557 5.081 17 5.667 17 Z M 12.576 10.561 C 13.162 10.561 13.636 10.119 13.636 9.573 C 13.636 9.027 13.162 8.585 12.576 8.585 C 11.99 8.585 11.515 9.027 11.515 9.573 C 11.515 10.119 11.99 10.561 12.576 10.561 Z M 12.576 6.1 C 13.162 6.1 13.636 5.657 13.636 5.111 C 13.636 4.565 13.162 4.123 12.576 4.123 C 11.99 4.123 11.515 4.565 11.515 5.111 C 11.515 5.657 11.99 6.1 12.576 6.1 Z M 1.061 4.349 C 1.646 4.349 2.121 4.791 2.121 5.337 C 2.121 5.883 1.646 6.326 1.061 6.326 C 0.475 6.326 0 5.883 0 5.337 C 0 4.791 0.475 4.349 1.061 4.349 Z M 3.182 4.292 C 3.768 4.292 4.242 4.735 4.242 5.281 C 4.242 5.827 3.768 6.269 3.182 6.269 C 2.596 6.269 2.121 5.827 2.121 5.281 C 2.121 4.735 2.596 4.292 3.182 4.292 Z M 5.667 4.123 C 6.252 4.123 6.727 3.68 6.727 3.135 C 6.727 2.589 6.252 2.146 5.667 2.146 C 5.081 2.146 4.606 2.589 4.606 3.135 C 4.606 3.68 5.081 4.123 5.667 4.123 Z M 10.273 1.977 C 10.858 1.977 11.333 1.534 11.333 0.988 C 11.333 0.443 10.858 0 10.273 0 C 9.687 0 9.212 0.443 9.212 0.988 C 9.212 1.534 9.687 1.977 10.273 1.977 Z M 5.667 1.977 C 6.252 1.977 6.727 1.534 6.727 0.988 C 6.727 0.443 6.252 0 5.667 0 C 5.081 0 4.606 0.443 4.606 0.988 C 4.606 1.534 5.081 1.977 5.667 1.977 Z M 5.667 8.415 C 6.252 8.415 6.727 7.973 6.727 7.427 C 6.727 6.881 6.252 6.439 5.667 6.439 C 5.081 6.439 4.606 6.881 4.606 7.427 C 4.606 7.973 5.081 8.415 5.667 8.415 Z M 3.364 8.415 C 3.949 8.415 4.424 7.973 4.424 7.427 C 4.424 6.881 3.949 6.439 3.364 6.439 C 2.778 6.439 2.303 6.881 2.303 7.427 C 2.303 7.973 2.778 8.415 3.364 8.415 Z M 1.061 8.415 C 1.646 8.415 2.121 7.973 2.121 7.427 C 2.121 6.881 1.646 6.439 1.061 6.439 C 0.475 6.439 0 6.881 0 7.427 C 0 7.973 0.475 8.415 1.061 8.415 Z M 1.061 10.561 C 1.646 10.561 2.121 10.119 2.121 9.573 C 2.121 9.027 1.646 8.585 1.061 8.585 C 0.475 8.585 0 9.027 0 9.573 C 0 10.119 0.475 10.561 1.061 10.561 Z M 3.364 10.505 C 3.949 10.505 4.424 10.062 4.424 9.517 C 4.424 8.971 3.949 8.528 3.364 8.528 C 2.778 8.528 2.303 8.971 2.303 9.517 C 2.303 10.062 2.778 10.505 3.364 10.505 Z M 7.97 12.708 C 8.555 12.708 9.03 12.265 9.03 11.719 C 9.03 11.173 8.555 10.731 7.97 10.731 C 7.384 10.731 6.909 11.173 6.909 11.719 C 6.909 12.265 7.384 12.708 7.97 12.708 Z M 7.97 14.854 C 8.555 14.854 9.03 14.411 9.03 13.865 C 9.03 13.32 8.555 12.877 7.97 12.877 C 7.384 12.877 6.909 13.32 6.909 13.865 C 6.909 14.411 7.384 14.854 7.97 14.854 Z M 7.97 17 C 8.555 17 9.03 16.557 9.03 16.012 C 9.03 15.466 8.555 15.023 7.97 15.023 C 7.384 15.023 6.909 15.466 6.909 16.012 C 6.909 16.557 7.384 17 7.97 17 Z" fill="currentColor" fill-rule="evenodd"></path>
</svg>