<svg xmlns="http://www.w3.org/2000/svg" width="11.583" height="13.177" viewBox="0 0 11.583 13.177" fill="#D71921">
  <path d="M 5.791 1.532 C 6.217 1.532 6.562 1.189 6.562 0.766 C 6.562 0.343 6.217 0 5.791 0 C 5.366 0 5.021 0.343 5.021 0.766 C 5.021 1.189 5.366 1.532 5.791 1.532 Z M 5.791 3.196 C 6.217 3.196 6.562 2.853 6.562 2.43 C 6.562 2.007 6.217 1.664 5.791 1.664 C 5.366 1.664 5.021 2.007 5.021 2.43 C 5.021 2.853 5.366 3.196 5.791 3.196 Z M 5.791 4.859 C 6.217 4.859 6.562 4.516 6.562 4.093 C 6.562 3.67 6.217 3.327 5.791 3.327 C 5.366 3.327 5.021 3.67 5.021 4.093 C 5.021 4.516 5.366 4.859 5.791 4.859 Z M 5.791 6.523 C 6.217 6.523 6.562 6.18 6.562 5.757 C 6.562 5.334 6.217 4.991 5.791 4.991 C 5.366 4.991 5.021 5.334 5.021 5.757 C 5.021 6.18 5.366 6.523 5.791 6.523 Z M 5.791 8.186 C 6.217 8.186 6.562 7.843 6.562 7.42 C 6.562 6.997 6.217 6.654 5.791 6.654 C 5.366 6.654 5.021 6.997 5.021 7.42 C 5.021 7.843 5.366 8.186 5.791 8.186 Z M 5.791 9.85 C 6.217 9.85 6.562 9.507 6.562 9.084 C 6.562 8.661 6.217 8.318 5.791 8.318 C 5.366 8.318 5.021 8.661 5.021 9.084 C 5.021 9.507 5.366 9.85 5.791 9.85 Z M 5.791 11.513 C 6.217 11.513 6.562 11.17 6.562 10.747 C 6.562 10.324 6.217 9.981 5.791 9.981 C 5.366 9.981 5.021 10.324 5.021 10.747 C 5.021 11.17 5.366 11.513 5.791 11.513 Z M 5.791 13.177 C 6.217 13.177 6.562 12.834 6.562 12.411 C 6.562 11.988 6.217 11.645 5.791 11.645 C 5.366 11.645 5.021 11.988 5.021 12.411 C 5.021 12.834 5.366 13.177 5.791 13.177 Z M 2.444 9.85 C 2.87 9.85 3.215 9.507 3.215 9.084 C 3.215 8.661 2.87 8.318 2.444 8.318 C 2.019 8.318 1.674 8.661 1.674 9.084 C 1.674 9.507 2.019 9.85 2.444 9.85 Z M 4.118 9.85 C 4.543 9.85 4.889 9.507 4.889 9.084 C 4.889 8.661 4.543 8.318 4.118 8.318 C 3.692 8.318 3.347 8.661 3.347 9.084 C 3.347 9.507 3.692 9.85 4.118 9.85 Z M 2.444 8.186 C 2.87 8.186 3.215 7.843 3.215 7.42 C 3.215 6.997 2.87 6.654 2.444 6.654 C 2.019 6.654 1.674 6.997 1.674 7.42 C 1.674 7.843 2.019 8.186 2.444 8.186 Z M 4.118 8.186 C 4.543 8.186 4.889 7.843 4.889 7.42 C 4.889 6.997 4.543 6.654 4.118 6.654 C 3.692 6.654 3.347 6.997 3.347 7.42 C 3.347 7.843 3.692 8.186 4.118 8.186 Z M 2.444 6.523 C 2.87 6.523 3.215 6.18 3.215 5.757 C 3.215 5.334 2.87 4.991 2.444 4.991 C 2.019 4.991 1.674 5.334 1.674 5.757 C 1.674 6.18 2.019 6.523 2.444 6.523 Z M 4.118 6.523 C 4.543 6.523 4.889 6.18 4.889 5.757 C 4.889 5.334 4.543 4.991 4.118 4.991 C 3.692 4.991 3.347 5.334 3.347 5.757 C 3.347 6.18 3.692 6.523 4.118 6.523 Z M 2.444 4.859 C 2.87 4.859 3.215 4.516 3.215 4.093 C 3.215 3.67 2.87 3.327 2.444 3.327 C 2.019 3.327 1.674 3.67 1.674 4.093 C 1.674 4.516 2.019 4.859 2.444 4.859 Z M 4.118 4.859 C 4.543 4.859 4.889 4.516 4.889 4.093 C 4.889 3.67 4.543 3.327 4.118 3.327 C 3.692 3.327 3.347 3.67 3.347 4.093 C 3.347 4.516 3.692 4.859 4.118 4.859 Z M 7.465 9.85 C 7.891 9.85 8.236 9.507 8.236 9.084 C 8.236 8.661 7.891 8.318 7.465 8.318 C 7.039 8.318 6.694 8.661 6.694 9.084 C 6.694 9.507 7.039 9.85 7.465 9.85 Z M 4.118 11.513 C 4.543 11.513 4.889 11.17 4.889 10.747 C 4.889 10.324 4.543 9.981 4.118 9.981 C 3.692 9.981 3.347 10.324 3.347 10.747 C 3.347 11.17 3.692 11.513 4.118 11.513 Z M 7.465 11.513 C 7.891 11.513 8.236 11.17 8.236 10.747 C 8.236 10.324 7.891 9.981 7.465 9.981 C 7.039 9.981 6.694 10.324 6.694 10.747 C 6.694 11.17 7.039 11.513 7.465 11.513 Z M 9.138 9.85 C 9.564 9.85 9.909 9.507 9.909 9.084 C 9.909 8.661 9.564 8.318 9.138 8.318 C 8.713 8.318 8.368 8.661 8.368 9.084 C 8.368 9.507 8.713 9.85 9.138 9.85 Z M 7.465 8.186 C 7.891 8.186 8.236 7.843 8.236 7.42 C 8.236 6.997 7.891 6.654 7.465 6.654 C 7.039 6.654 6.694 6.997 6.694 7.42 C 6.694 7.843 7.039 8.186 7.465 8.186 Z M 9.138 8.186 C 9.564 8.186 9.909 7.843 9.909 7.42 C 9.909 6.997 9.564 6.654 9.138 6.654 C 8.713 6.654 8.368 6.997 8.368 7.42 C 8.368 7.843 8.713 8.186 9.138 8.186 Z M 7.465 6.523 C 7.891 6.523 8.236 6.18 8.236 5.757 C 8.236 5.334 7.891 4.991 7.465 4.991 C 7.039 4.991 6.694 5.334 6.694 5.757 C 6.694 6.18 7.039 6.523 7.465 6.523 Z M 9.138 6.523 C 9.564 6.523 9.909 6.18 9.909 5.757 C 9.909 5.334 9.564 4.991 9.138 4.991 C 8.713 4.991 8.368 5.334 8.368 5.757 C 8.368 6.18 8.713 6.523 9.138 6.523 Z M 10.812 8.186 C 11.238 8.186 11.583 7.843 11.583 7.42 C 11.583 6.997 11.238 6.654 10.812 6.654 C 10.386 6.654 10.041 6.997 10.041 7.42 C 10.041 7.843 10.386 8.186 10.812 8.186 Z M 10.812 6.523 C 11.238 6.523 11.583 6.18 11.583 5.757 C 11.583 5.334 11.238 4.991 10.812 4.991 C 10.386 4.991 10.041 5.334 10.041 5.757 C 10.041 6.18 10.386 6.523 10.812 6.523 Z M 0.771 8.186 C 1.196 8.186 1.541 7.843 1.541 7.42 C 1.541 6.997 1.196 6.654 0.771 6.654 C 0.345 6.654 0 6.997 0 7.42 C 0 7.843 0.345 8.186 0.771 8.186 Z M 0.771 6.523 C 1.196 6.523 1.541 6.18 1.541 5.757 C 1.541 5.334 1.196 4.991 0.771 4.991 C 0.345 4.991 0 5.334 0 5.757 C 0 6.18 0.345 6.523 0.771 6.523 Z M 7.465 4.859 C 7.891 4.859 8.236 4.516 8.236 4.093 C 8.236 3.67 7.891 3.327 7.465 3.327 C 7.039 3.327 6.694 3.67 6.694 4.093 C 6.694 4.516 7.039 4.859 7.465 4.859 Z M 4.118 3.196 C 4.543 3.196 4.889 2.853 4.889 2.43 C 4.889 2.007 4.543 1.664 4.118 1.664 C 3.692 1.664 3.347 2.007 3.347 2.43 C 3.347 2.853 3.692 3.196 4.118 3.196 Z M 7.465 3.196 C 7.891 3.196 8.236 2.853 8.236 2.43 C 8.236 2.007 7.891 1.664 7.465 1.664 C 7.039 1.664 6.694 2.007 6.694 2.43 C 6.694 2.853 7.039 3.196 7.465 3.196 Z M 9.138 4.859 C 9.564 4.859 9.909 4.516 9.909 4.093 C 9.909 3.67 9.564 3.327 9.138 3.327 C 8.713 3.327 8.368 3.67 8.368 4.093 C 8.368 4.516 8.713 4.859 9.138 4.859 Z" fill="currentColor" fill-rule="evenodd"></path>
</svg>