<svg xmlns="http://www.w3.org/2000/svg" width="13.906" height="13.952" viewBox="0 0 13.906 13.952" fill="#D71921">
  <path d="M 6.075 3.349 C 6.522 3.349 6.884 2.984 6.884 2.535 C 6.884 2.085 6.522 1.721 6.075 1.721 C 5.629 1.721 5.267 2.085 5.267 2.535 C 5.267 2.984 5.629 3.349 6.075 3.349 Z M 6.075 5.116 C 6.522 5.116 6.884 4.751 6.884 4.302 C 6.884 3.852 6.522 3.488 6.075 3.488 C 5.629 3.488 5.267 3.852 5.267 4.302 C 5.267 4.751 5.629 5.116 6.075 5.116 Z M 6.075 6.883 C 6.522 6.883 6.884 6.519 6.884 6.069 C 6.884 5.62 6.522 5.255 6.075 5.255 C 5.629 5.255 5.267 5.62 5.267 6.069 C 5.267 6.519 5.629 6.883 6.075 6.883 Z M 6.075 8.65 C 6.522 8.65 6.884 8.286 6.884 7.836 C 6.884 7.387 6.522 7.023 6.075 7.023 C 5.629 7.023 5.267 7.387 5.267 7.836 C 5.267 8.286 5.629 8.65 6.075 8.65 Z M 6.075 10.418 C 6.522 10.418 6.884 10.053 6.884 9.604 C 6.884 9.154 6.522 8.79 6.075 8.79 C 5.629 8.79 5.267 9.154 5.267 9.604 C 5.267 10.053 5.629 10.418 6.075 10.418 Z M 6.075 12.185 C 6.522 12.185 6.884 11.82 6.884 11.371 C 6.884 10.922 6.522 10.557 6.075 10.557 C 5.629 10.557 5.267 10.922 5.267 11.371 C 5.267 11.82 5.629 12.185 6.075 12.185 Z M 7.831 3.349 C 8.277 3.349 8.639 2.984 8.639 2.535 C 8.639 2.085 8.277 1.721 7.831 1.721 C 7.384 1.721 7.022 2.085 7.022 2.535 C 7.022 2.984 7.384 3.349 7.831 3.349 Z M 7.831 5.116 C 8.277 5.116 8.639 4.751 8.639 4.302 C 8.639 3.852 8.277 3.488 7.831 3.488 C 7.384 3.488 7.022 3.852 7.022 4.302 C 7.022 4.751 7.384 5.116 7.831 5.116 Z M 7.831 6.883 C 8.277 6.883 8.639 6.519 8.639 6.069 C 8.639 5.62 8.277 5.255 7.831 5.255 C 7.384 5.255 7.022 5.62 7.022 6.069 C 7.022 6.519 7.384 6.883 7.831 6.883 Z M 7.831 8.65 C 8.277 8.65 8.639 8.286 8.639 7.836 C 8.639 7.387 8.277 7.023 7.831 7.023 C 7.384 7.023 7.022 7.387 7.022 7.836 C 7.022 8.286 7.384 8.65 7.831 8.65 Z M 7.831 10.418 C 8.277 10.418 8.639 10.053 8.639 9.604 C 8.639 9.154 8.277 8.79 7.831 8.79 C 7.384 8.79 7.022 9.154 7.022 9.604 C 7.022 10.053 7.384 10.418 7.831 10.418 Z M 7.831 12.185 C 8.277 12.185 8.639 11.82 8.639 11.371 C 8.639 10.922 8.277 10.557 7.831 10.557 C 7.384 10.557 7.022 10.922 7.022 11.371 C 7.022 11.82 7.384 12.185 7.831 12.185 Z M 9.586 1.628 C 10.033 1.628 10.395 1.263 10.395 0.814 C 10.395 0.364 10.033 0 9.586 0 C 9.14 0 8.778 0.364 8.778 0.814 C 8.778 1.263 9.14 1.628 9.586 1.628 Z M 9.586 3.395 C 10.033 3.395 10.395 3.031 10.395 2.581 C 10.395 2.132 10.033 1.767 9.586 1.767 C 9.14 1.767 8.778 2.132 8.778 2.581 C 8.778 3.031 9.14 3.395 9.586 3.395 Z M 9.586 5.162 C 10.033 5.162 10.395 4.798 10.395 4.348 C 10.395 3.899 10.033 3.535 9.586 3.535 C 9.14 3.535 8.778 3.899 8.778 4.348 C 8.778 4.798 9.14 5.162 9.586 5.162 Z M 9.586 6.93 C 10.033 6.93 10.395 6.565 10.395 6.116 C 10.395 5.666 10.033 5.302 9.586 5.302 C 9.14 5.302 8.778 5.666 8.778 6.116 C 8.778 6.565 9.14 6.93 9.586 6.93 Z M 9.586 8.697 C 10.033 8.697 10.395 8.332 10.395 7.883 C 10.395 7.433 10.033 7.069 9.586 7.069 C 9.14 7.069 8.778 7.433 8.778 7.883 C 8.778 8.332 9.14 8.697 9.586 8.697 Z M 9.586 10.464 C 10.033 10.464 10.395 10.1 10.395 9.65 C 10.395 9.201 10.033 8.836 9.586 8.836 C 9.14 8.836 8.778 9.201 8.778 9.65 C 8.778 10.1 9.14 10.464 9.586 10.464 Z M 4.32 1.628 C 4.766 1.628 5.128 1.263 5.128 0.814 C 5.128 0.364 4.766 0 4.32 0 C 3.873 0 3.511 0.364 3.511 0.814 C 3.511 1.263 3.873 1.628 4.32 1.628 Z M 4.32 3.395 C 4.766 3.395 5.128 3.031 5.128 2.581 C 5.128 2.132 4.766 1.767 4.32 1.767 C 3.873 1.767 3.511 2.132 3.511 2.581 C 3.511 3.031 3.873 3.395 4.32 3.395 Z M 4.32 5.162 C 4.766 5.162 5.128 4.798 5.128 4.348 C 5.128 3.899 4.766 3.535 4.32 3.535 C 3.873 3.535 3.511 3.899 3.511 4.348 C 3.511 4.798 3.873 5.162 4.32 5.162 Z M 4.32 6.93 C 4.766 6.93 5.128 6.565 5.128 6.116 C 5.128 5.666 4.766 5.302 4.32 5.302 C 3.873 5.302 3.511 5.666 3.511 6.116 C 3.511 6.565 3.873 6.93 4.32 6.93 Z M 4.32 8.697 C 4.766 8.697 5.128 8.332 5.128 7.883 C 5.128 7.433 4.766 7.069 4.32 7.069 C 3.873 7.069 3.511 7.433 3.511 7.883 C 3.511 8.332 3.873 8.697 4.32 8.697 Z M 2.564 1.628 C 3.011 1.628 3.373 1.263 3.373 0.814 C 3.373 0.364 3.011 0 2.564 0 C 2.118 0 1.756 0.364 1.756 0.814 C 1.756 1.263 2.118 1.628 2.564 1.628 Z M 2.564 3.395 C 3.011 3.395 3.373 3.031 3.373 2.581 C 3.373 2.132 3.011 1.767 2.564 1.767 C 2.118 1.767 1.756 2.132 1.756 2.581 C 1.756 3.031 2.118 3.395 2.564 3.395 Z M 2.564 5.162 C 3.011 5.162 3.373 4.798 3.373 4.348 C 3.373 3.899 3.011 3.535 2.564 3.535 C 2.118 3.535 1.756 3.899 1.756 4.348 C 1.756 4.798 2.118 5.162 2.564 5.162 Z M 2.564 6.93 C 3.011 6.93 3.373 6.565 3.373 6.116 C 3.373 5.666 3.011 5.302 2.564 5.302 C 2.118 5.302 1.756 5.666 1.756 6.116 C 1.756 6.565 2.118 6.93 2.564 6.93 Z M 2.564 8.697 C 3.011 8.697 3.373 8.332 3.373 7.883 C 3.373 7.433 3.011 7.069 2.564 7.069 C 2.118 7.069 1.756 7.433 1.756 7.883 C 1.756 8.332 2.118 8.697 2.564 8.697 Z M 11.342 1.628 C 11.788 1.628 12.15 1.263 12.15 0.814 C 12.15 0.364 11.788 0 11.342 0 C 10.895 0 10.533 0.364 10.533 0.814 C 10.533 1.263 10.895 1.628 11.342 1.628 Z M 11.342 3.395 C 11.788 3.395 12.15 3.031 12.15 2.581 C 12.15 2.132 11.788 1.767 11.342 1.767 C 10.895 1.767 10.533 2.132 10.533 2.581 C 10.533 3.031 10.895 3.395 11.342 3.395 Z M 11.342 5.162 C 11.788 5.162 12.15 4.798 12.15 4.348 C 12.15 3.899 11.788 3.535 11.342 3.535 C 10.895 3.535 10.533 3.899 10.533 4.348 C 10.533 4.798 10.895 5.162 11.342 5.162 Z M 11.342 6.93 C 11.788 6.93 12.15 6.565 12.15 6.116 C 12.15 5.666 11.788 5.302 11.342 5.302 C 10.895 5.302 10.533 5.666 10.533 6.116 C 10.533 6.565 10.895 6.93 11.342 6.93 Z M 13.097 3.395 C 13.544 3.395 13.906 3.031 13.906 2.581 C 13.906 2.132 13.544 1.767 13.097 1.767 C 12.651 1.767 12.289 2.132 12.289 2.581 C 12.289 3.031 12.651 3.395 13.097 3.395 Z M 13.097 5.162 C 13.544 5.162 13.906 4.798 13.906 4.348 C 13.906 3.899 13.544 3.535 13.097 3.535 C 12.651 3.535 12.289 3.899 12.289 4.348 C 12.289 4.798 12.651 5.162 13.097 5.162 Z M 13.097 6.93 C 13.544 6.93 13.906 6.565 13.906 6.116 C 13.906 5.666 13.544 5.302 13.097 5.302 C 12.651 5.302 12.289 5.666 12.289 6.116 C 12.289 6.565 12.651 6.93 13.097 6.93 Z M 0.808 3.395 C 1.255 3.395 1.617 3.031 1.617 2.581 C 1.617 2.132 1.255 1.767 0.808 1.767 C 0.362 1.767 0 2.132 0 2.581 C 0 3.031 0.362 3.395 0.808 3.395 Z M 0.808 5.162 C 1.255 5.162 1.617 4.798 1.617 4.348 C 1.617 3.899 1.255 3.535 0.808 3.535 C 0.362 3.535 0 3.899 0 4.348 C 0 4.798 0.362 5.162 0.808 5.162 Z M 0.808 6.93 C 1.255 6.93 1.617 6.565 1.617 6.116 C 1.617 5.666 1.255 5.302 0.808 5.302 C 0.362 5.302 0 5.666 0 6.116 C 0 6.565 0.362 6.93 0.808 6.93 Z M 11.342 8.697 C 11.788 8.697 12.15 8.332 12.15 7.883 C 12.15 7.433 11.788 7.069 11.342 7.069 C 10.895 7.069 10.533 7.433 10.533 7.883 C 10.533 8.332 10.895 8.697 11.342 8.697 Z M 4.32 10.464 C 4.766 10.464 5.128 10.1 5.128 9.65 C 5.128 9.201 4.766 8.836 4.32 8.836 C 3.873 8.836 3.511 9.201 3.511 9.65 C 3.511 10.1 3.873 10.464 4.32 10.464 Z M 6.075 13.952 C 6.522 13.952 6.884 13.588 6.884 13.138 C 6.884 12.689 6.522 12.324 6.075 12.324 C 5.629 12.324 5.267 12.689 5.267 13.138 C 5.267 13.588 5.629 13.952 6.075 13.952 Z M 7.831 13.952 C 8.277 13.952 8.639 13.588 8.639 13.138 C 8.639 12.689 8.277 12.324 7.831 12.324 C 7.384 12.324 7.022 12.689 7.022 13.138 C 7.022 13.588 7.384 13.952 7.831 13.952 Z" fill="currentColor" fill-rule="evenodd"></path>
</svg>