<svg xmlns="http://www.w3.org/2000/svg" width="11.476" height="13.056" viewBox="0 0 11.476 13.056" fill="#FFFFFF">
  <path d="M 5.738 1.518 C 6.16 1.518 6.502 1.178 6.502 0.759 C 6.502 0.34 6.16 0 5.738 0 C 5.316 0 4.974 0.34 4.974 0.759 C 4.974 1.178 5.316 1.518 5.738 1.518 Z M 5.738 3.166 C 6.16 3.166 6.502 2.827 6.502 2.407 C 6.502 1.988 6.16 1.648 5.738 1.648 C 5.316 1.648 4.974 1.988 4.974 2.407 C 4.974 2.827 5.316 3.166 5.738 3.166 Z M 5.738 4.815 C 6.16 4.815 6.502 4.475 6.502 4.056 C 6.502 3.636 6.16 3.296 5.738 3.296 C 5.316 3.296 4.974 3.636 4.974 4.056 C 4.974 4.475 5.316 4.815 5.738 4.815 Z M 5.738 6.463 C 6.16 6.463 6.502 6.123 6.502 5.704 C 6.502 5.285 6.16 4.945 5.738 4.945 C 5.316 4.945 4.974 5.285 4.974 5.704 C 4.974 6.123 5.316 6.463 5.738 6.463 Z M 5.738 8.111 C 6.16 8.111 6.502 7.771 6.502 7.352 C 6.502 6.933 6.16 6.593 5.738 6.593 C 5.316 6.593 4.974 6.933 4.974 7.352 C 4.974 7.771 5.316 8.111 5.738 8.111 Z M 5.738 9.759 C 6.16 9.759 6.502 9.42 6.502 9 C 6.502 8.581 6.16 8.241 5.738 8.241 C 5.316 8.241 4.974 8.581 4.974 9 C 4.974 9.42 5.316 9.759 5.738 9.759 Z M 5.738 11.408 C 6.16 11.408 6.502 11.068 6.502 10.649 C 6.502 10.229 6.16 9.889 5.738 9.889 C 5.316 9.889 4.974 10.229 4.974 10.649 C 4.974 11.068 5.316 11.408 5.738 11.408 Z M 5.738 13.056 C 6.16 13.056 6.502 12.716 6.502 12.297 C 6.502 11.878 6.16 11.538 5.738 11.538 C 5.316 11.538 4.974 11.878 4.974 12.297 C 4.974 12.716 5.316 13.056 5.738 13.056 Z M 7.396 13.056 C 7.818 13.056 8.16 12.716 8.16 12.297 C 8.16 11.878 7.818 11.538 7.396 11.538 C 6.975 11.538 6.633 11.878 6.633 12.297 C 6.633 12.716 6.975 13.056 7.396 13.056 Z M 9.054 13.056 C 9.476 13.056 9.818 12.716 9.818 12.297 C 9.818 11.878 9.476 11.538 9.054 11.538 C 8.633 11.538 8.291 11.878 8.291 12.297 C 8.291 12.716 8.633 13.056 9.054 13.056 Z M 2.422 13.056 C 2.844 13.056 3.185 12.716 3.185 12.297 C 3.185 11.878 2.844 11.538 2.422 11.538 C 2 11.538 1.658 11.878 1.658 12.297 C 1.658 12.716 2 13.056 2.422 13.056 Z M 4.08 13.056 C 4.502 13.056 4.844 12.716 4.844 12.297 C 4.844 11.878 4.502 11.538 4.08 11.538 C 3.658 11.538 3.316 11.878 3.316 12.297 C 3.316 12.716 3.658 13.056 4.08 13.056 Z M 2.422 9.759 C 2.844 9.759 3.185 9.42 3.185 9 C 3.185 8.581 2.844 8.241 2.422 8.241 C 2 8.241 1.658 8.581 1.658 9 C 1.658 9.42 2 9.759 2.422 9.759 Z M 4.08 9.759 C 4.502 9.759 4.844 9.42 4.844 9 C 4.844 8.581 4.502 8.241 4.08 8.241 C 3.658 8.241 3.316 8.581 3.316 9 C 3.316 9.42 3.658 9.759 4.08 9.759 Z M 2.422 8.111 C 2.844 8.111 3.185 7.771 3.185 7.352 C 3.185 6.933 2.844 6.593 2.422 6.593 C 2 6.593 1.658 6.933 1.658 7.352 C 1.658 7.771 2 8.111 2.422 8.111 Z M 4.08 8.111 C 4.502 8.111 4.844 7.771 4.844 7.352 C 4.844 6.933 4.502 6.593 4.08 6.593 C 3.658 6.593 3.316 6.933 3.316 7.352 C 3.316 7.771 3.658 8.111 4.08 8.111 Z M 2.422 6.463 C 2.844 6.463 3.185 6.123 3.185 5.704 C 3.185 5.285 2.844 4.945 2.422 4.945 C 2 4.945 1.658 5.285 1.658 5.704 C 1.658 6.123 2 6.463 2.422 6.463 Z M 4.08 6.463 C 4.502 6.463 4.844 6.123 4.844 5.704 C 4.844 5.285 4.502 4.945 4.08 4.945 C 3.658 4.945 3.316 5.285 3.316 5.704 C 3.316 6.123 3.658 6.463 4.08 6.463 Z M 2.422 4.815 C 2.844 4.815 3.185 4.475 3.185 4.056 C 3.185 3.636 2.844 3.296 2.422 3.296 C 2 3.296 1.658 3.636 1.658 4.056 C 1.658 4.475 2 4.815 2.422 4.815 Z M 4.08 4.815 C 4.502 4.815 4.844 4.475 4.844 4.056 C 4.844 3.636 4.502 3.296 4.08 3.296 C 3.658 3.296 3.316 3.636 3.316 4.056 C 3.316 4.475 3.658 4.815 4.08 4.815 Z M 7.396 9.759 C 7.818 9.759 8.16 9.42 8.16 9 C 8.16 8.581 7.818 8.241 7.396 8.241 C 6.975 8.241 6.633 8.581 6.633 9 C 6.633 9.42 6.975 9.759 7.396 9.759 Z M 9.054 9.759 C 9.476 9.759 9.818 9.42 9.818 9 C 9.818 8.581 9.476 8.241 9.054 8.241 C 8.633 8.241 8.291 8.581 8.291 9 C 8.291 9.42 8.633 9.759 9.054 9.759 Z M 7.396 8.111 C 7.818 8.111 8.16 7.771 8.16 7.352 C 8.16 6.933 7.818 6.593 7.396 6.593 C 6.975 6.593 6.633 6.933 6.633 7.352 C 6.633 7.771 6.975 8.111 7.396 8.111 Z M 9.054 8.111 C 9.476 8.111 9.818 7.771 9.818 7.352 C 9.818 6.933 9.476 6.593 9.054 6.593 C 8.633 6.593 8.291 6.933 8.291 7.352 C 8.291 7.771 8.633 8.111 9.054 8.111 Z M 7.396 6.463 C 7.818 6.463 8.16 6.123 8.16 5.704 C 8.16 5.285 7.818 4.945 7.396 4.945 C 6.975 4.945 6.633 5.285 6.633 5.704 C 6.633 6.123 6.975 6.463 7.396 6.463 Z M 9.054 6.463 C 9.476 6.463 9.818 6.123 9.818 5.704 C 9.818 5.285 9.476 4.945 9.054 4.945 C 8.633 4.945 8.291 5.285 8.291 5.704 C 8.291 6.123 8.633 6.463 9.054 6.463 Z M 10.713 8.111 C 11.134 8.111 11.476 7.771 11.476 7.352 C 11.476 6.933 11.134 6.593 10.713 6.593 C 10.291 6.593 9.949 6.933 9.949 7.352 C 9.949 7.771 10.291 8.111 10.713 8.111 Z M 10.713 6.463 C 11.134 6.463 11.476 6.123 11.476 5.704 C 11.476 5.285 11.134 4.945 10.713 4.945 C 10.291 4.945 9.949 5.285 9.949 5.704 C 9.949 6.123 10.291 6.463 10.713 6.463 Z M 0.764 8.111 C 1.185 8.111 1.527 7.771 1.527 7.352 C 1.527 6.933 1.185 6.593 0.764 6.593 C 0.342 6.593 0 6.933 0 7.352 C 0 7.771 0.342 8.111 0.764 8.111 Z M 0.764 6.463 C 1.185 6.463 1.527 6.123 1.527 5.704 C 1.527 5.285 1.185 4.945 0.764 4.945 C 0.342 4.945 0 5.285 0 5.704 C 0 6.123 0.342 6.463 0.764 6.463 Z M 7.396 4.815 C 7.818 4.815 8.16 4.475 8.16 4.056 C 8.16 3.636 7.818 3.296 7.396 3.296 C 6.975 3.296 6.633 3.636 6.633 4.056 C 6.633 4.475 6.975 4.815 7.396 4.815 Z M 4.08 3.166 C 4.502 3.166 4.844 2.827 4.844 2.407 C 4.844 1.988 4.502 1.648 4.08 1.648 C 3.658 1.648 3.316 1.988 3.316 2.407 C 3.316 2.827 3.658 3.166 4.08 3.166 Z M 7.396 3.166 C 7.818 3.166 8.16 2.827 8.16 2.407 C 8.16 1.988 7.818 1.648 7.396 1.648 C 6.975 1.648 6.633 1.988 6.633 2.407 C 6.633 2.827 6.975 3.166 7.396 3.166 Z M 9.054 4.815 C 9.476 4.815 9.818 4.475 9.818 4.056 C 9.818 3.636 9.476 3.296 9.054 3.296 C 8.633 3.296 8.291 3.636 8.291 4.056 C 8.291 4.475 8.633 4.815 9.054 4.815 Z" fill="currentColor" fill-rule="evenodd"></path>
</svg>